# Blender v2.79 (sub 6) OBJ File: ''
# www.blender.org
mtllib abstract.mtl
o Cube
v 1.000000 -1.000000 -1.000000
v 1.000000 -1.000000 1.000000
v -1.000000 -1.000000 1.000000
v -1.000000 -1.000000 -1.000000
v 1.000000 1.000000 -0.999999
v 0.999999 1.000000 2.222450
v -1.000000 1.000000 2.222449
v -1.000000 1.000000 -1.000000
v 0.507161 1.812343 -0.145629
v 0.507161 1.812343 1.368080
v -0.507161 1.812343 -0.145630
v -0.507161 1.812343 1.368079
v 0.507161 1.812343 0.611225
v 0.000000 1.812343 -0.145629
v -0.000000 1.812343 1.368080
v -0.507161 1.812343 0.611225
v -0.000000 1.812343 0.611225
v 0.507161 2.715831 0.611225
v 0.507161 2.715831 1.368080
v -0.000000 2.715831 1.368080
v -0.000000 2.715831 0.611225
vn 0.0000 -1.0000 0.0000
vn 0.0000 0.7247 -0.6891
vn 1.0000 0.0000 0.0000
vn -0.0000 -0.5215 0.8532
vn -1.0000 -0.0000 -0.0000
vn 0.0000 0.0000 -1.0000
vn 0.0000 1.0000 0.0000
vn -0.0000 0.7247 0.6891
vn 0.8550 0.5187 0.0000
vn -0.8550 0.5187 -0.0000
vn -0.0000 0.0000 1.0000
usemtl Material
s off
f 1//1 2//1 3//1 4//1
f 5//2 8//2 11//2 14//2 9//2
f 1//3 5//3 6//3 2//3
f 2//4 6//4 7//4 3//4
f 3//5 7//5 8//5 4//5
f 5//6 1//6 4//6 8//6
f 17//7 16//7 12//7 15//7
f 7//8 6//8 10//8 15//8 12//8
f 6//9 5//9 9//9 13//9 10//9
f 8//10 7//10 12//10 16//10 11//10
f 10//3 13//3 18//3 19//3
f 9//7 14//7 17//7 13//7
f 14//7 11//7 16//7 17//7
f 18//7 21//7 20//7 19//7
f 13//6 17//6 21//6 18//6
f 17//5 15//5 20//5 21//5
f 15//11 10//11 19//11 20//11
